<svg xmlns="http://www.w3.org/2000/svg" width="41.286" height="27.834"><g transform="translate(324.686 -226.192)"><path fill="#479F00" d="M-294.565 232.282a7.478 7.478 0 00-10.256 2.573 6.124 6.124 0 00-.124.225c.135.097.272.189.413.276a7.476 7.476 0 0010.256-2.572 5.46 5.46 0 00.123-.224 8.246 8.246 0 00-.412-.278z"/><path fill="#479F00" d="M-312.322 233.231a5.744 5.744 0 018.094.678l.122.155c-.09.09-.183.177-.279.261a5.744 5.744 0 01-8.094-.678 5.88 5.88 0 01-.121-.155c.089-.09.181-.177.278-.261z"/><g fill="#479F00"><path d="M-284.088 235.164a7.476 7.476 0 00-10 3.435c-.037.078-.069.156-.104.234.144.085.289.165.437.24a7.478 7.478 0 0010.002-3.435l.104-.233a7.543 7.543 0 00-.439-.241z"/><path d="M-284.914 240.013a7.478 7.478 0 00-10.461 1.54c-.051.069-.098.14-.145.21a7.3 7.3 0 00.383.317 7.478 7.478 0 0010.461-1.54c.051-.068.099-.14.146-.21a6.541 6.541 0 00-.384-.317z"/><path d="M-293.76 242.226a5.744 5.744 0 017.951 1.654l.102.169c-.1.078-.202.153-.309.226a5.744 5.744 0 01-7.951-1.654l-.102-.168c.1-.08.205-.154.309-.227z"/><path d="M-295.266 241.226a5.745 5.745 0 015.236 6.209l-.025.196a6.062 6.062 0 01-.381-.014 5.745 5.745 0 01-5.236-6.21c.008-.064.017-.131.023-.194.13.002.257.006.383.013z"/><path d="M-295.452 242.998a5.743 5.743 0 015.086-6.333 6.33 6.33 0 01.194-.015c.025.125.045.25.062.377a5.743 5.743 0 01-5.084 6.334 6.286 6.286 0 01-.197.015 4.797 4.797 0 01-.061-.378z"/></g><g fill="#479F00"><path d="M-324 235.164a7.476 7.476 0 0110 3.435c.035.078.07.156.103.234a7.367 7.367 0 01-.435.24 7.477 7.477 0 01-10-3.435 9.715 9.715 0 01-.105-.233 6.87 6.87 0 01.436-.241z"/><path d="M-323.174 240.013a7.478 7.478 0 0110.461 1.54c.05.069.1.14.146.21a7.736 7.736 0 01-.383.317 7.48 7.48 0 01-10.462-1.54 9.806 9.806 0 01-.146-.21c.123-.11.252-.216.384-.317z"/><path d="M-314.329 242.226a5.744 5.744 0 00-7.95 1.654l-.104.169c.101.078.203.153.31.226a5.745 5.745 0 007.951-1.654l.102-.168a5.844 5.844 0 00-.309-.227z"/><path d="M-312.823 241.226a5.744 5.744 0 00-5.236 6.209l.024.196c.127-.001.255-.005.381-.014a5.744 5.744 0 005.237-6.21 6.044 6.044 0 00-.024-.194 9.813 9.813 0 00-.382.013z"/><path d="M-312.635 242.998a5.744 5.744 0 00-5.085-6.333 6.286 6.286 0 00-.197-.015 7.994 7.994 0 00-.06.377 5.744 5.744 0 005.084 6.334h.001c.064.006.13.01.195.015.025-.125.045-.251.062-.378z"/></g><circle fill="#F8AD32" cx="-304.043" cy="243.311" r="9.388"/><g transform="translate(78.852 219.003)"><circle fill="#992500" cx="-385.41" cy="21.881" r=".817"/><path fill="#9A2400" d="M-385.41 22.964a1.083 1.083 0 11.001-2.165 1.083 1.083 0 01-.001 2.165zm0-1.636a.554.554 0 100 1.107.554.554 0 000-1.107z"/></g><g transform="translate(78.852 219.003)"><circle fill="#992500" cx="-380.379" cy="21.881" r=".817"/><path fill="#9A2400" d="M-380.379 22.964a1.084 1.084 0 01-1.082-1.082 1.082 1.082 0 111.082 1.082zm0-1.636a.554.554 0 10.001 1.107.554.554 0 00-.001-1.107z"/></g><path fill="#9A2400" d="M-304.043 250.137c-3.271 0-6.092-2.334-6.743-5.5h-.083a.53.53 0 010-1.058h.529c.265 0 .488.195.524.457a5.847 5.847 0 005.772 5.043c2.9 0 5.383-2.168 5.771-5.043a.53.53 0 01.525-.457h.529a.528.528 0 110 1.058h-.082c-.65 3.166-3.47 5.5-6.742 5.5z"/><path fill="#62AADD" d="M-304.043 231.489c-2.474 0-6.662-.452-6.662-2.148s4.188-2.148 6.662-2.148c2.475 0 6.662.452 6.662 2.148s-4.187 2.148-6.662 2.148zm0-3.239c-3.385 0-5.45.726-5.607 1.115.157.34 2.222 1.066 5.607 1.066 3.387 0 5.451-.726 5.607-1.115-.156-.34-2.22-1.066-5.607-1.066z"/></g></svg>