<svg xmlns="http://www.w3.org/2000/svg" width="19" height="27.834"><path fill="#FAAC2C" d="M18.889 17.12A9.387 9.387 0 019.5 26.507a9.39 9.39 0 119.389-9.388"/><path fill="#992500" d="M14.006 18.878v1.808c0 .728-.086 1.285-.259 1.677a2.05 2.05 0 01-.794.925 2.17 2.17 0 01-1.19.34c-.41 0-.78-.1-1.114-.3a2.205 2.205 0 01-.814-.873c-.163.476-.352.844-.57 1.1a2.294 2.294 0 01-.791.6 2.36 2.36 0 01-1.008.215c-.736 0-1.357-.27-1.867-.806-.509-.539-.764-1.263-.764-2.168v-2.518h9.171z"/><path fill="#FFF" d="M13.109 19.775h-2.936v.525c0 .637.058 1.106.177 1.405a1.493 1.493 0 001.411.975c.419 0 .749-.146.988-.44.24-.294.36-.761.36-1.404v-1.061zm-3.86.004H5.732v1.136c0 .67.065 1.163.197 1.473.131.312.336.563.613.752.28.189.58.284.904.284.408 0 .763-.133 1.068-.4.303-.266.511-.633.623-1.098.074-.313.112-.855.112-1.631v-.516z"/><path fill="#992500" d="M14.786 19.894H4.196c-.417 0-.756-.284-.756-.633 0-.35.339-.632.756-.632h10.59c.418 0 .757.283.757.632 0 .35-.34.633-.757.633m-7.092-5.112c0 1.01-.585 1.827-1.304 1.827-.721 0-1.305-.817-1.305-1.827 0-1.006.584-1.824 1.305-1.824.719 0 1.304.818 1.304 1.825m6.259-.001c0 1.01-.584 1.827-1.304 1.827-.721 0-1.304-.817-1.304-1.827 0-1.006.582-1.824 1.304-1.824.72 0 1.303.818 1.303 1.825"/><path d="M17.316.009a7.476 7.476 0 00-7.478 7.477c.003.087.005.172.01.257.163.013.33.022.494.025A7.477 7.477 0 0017.821.29V.289c-.003-.085-.005-.17-.01-.255a7.209 7.209 0 00-.495-.025zm-14.008 1.8a5.744 5.744 0 015.744 5.744 5.21 5.21 0 01-.006.197 5.598 5.598 0 01-.381.019A5.744 5.744 0 012.92 2.025v-.001c0-.065.003-.131.007-.196.126-.01.253-.018.381-.02z" fill="#479F00"/></svg>