<svg xmlns="http://www.w3.org/2000/svg" width="19" height="27.834"><circle fill="#FAAC2C" cx="9.501" cy="17.119" r="9.389"/><g transform="translate(-48.875 89.016)"><animate id="a" attributeName="visibility" from="hidden" to="hidden" dur="600ms" begin="3s;a.end+3s" values="hidden; hidden; visible; hidden; hidden; hidden; visible; hidden" keyTimes="0; .087; 0.304; 0.391; 0.609; 0.696; 0.913; 1"/><g fill="#FFF"><ellipse cx="62.211" cy="-72.92" rx="2.55" ry=".514"/><path d="M62.211-72.356c-1.26 0-2.599-.197-2.599-.564 0-.366 1.339-.563 2.599-.563 1.261 0 2.6.197 2.6.563-.001.367-1.34.564-2.6.564zm0-1.028c-1.548 0-2.499.271-2.499.464 0 .189.89.465 2.499.465s2.5-.275 2.5-.465c0-.194-.951-.464-2.5-.464z"/></g><g fill="#FFF"><ellipse cx="54.54" cy="-72.92" rx="2.549" ry=".514"/><path d="M54.54-72.356c-1.26 0-2.599-.197-2.599-.564 0-.366 1.339-.563 2.599-.563s2.599.197 2.599.563c0 .367-1.339.564-2.599.564zm0-1.028c-1.548 0-2.499.271-2.499.464 0 .189.89.465 2.499.465s2.499-.275 2.499-.465c0-.194-.95-.464-2.499-.464z"/></g></g><g transform="translate(-8.013 36.374)"><animate attributeName="visibility" from="hidden" to="hidden" dur="600ms" begin="3s;a.end+3s" values="hidden; visible; hidden; visible; hidden; visible; hidden; visible" keyTimes="0; .087; 0.304; 0.391; 0.609; 0.696; 0.913; 1"/><path fill="#FFF" d="M13.822-22.498c-.931.001-1.824.196-2.481.544-.193.391-.293.82-.294 1.258.001.482.125.959.361 1.383.65.326 1.516.51 2.415.512 1.013-.002 1.977-.232 2.643-.635.194-.393.296-.824.297-1.26a2.845 2.845 0 00-.236-1.129c-.667-.424-1.658-.672-2.705-.673z"/><circle fill="#992500" cx="13.903" cy="-20.696" r=".817"/><path fill="#9A2400" d="M13.903-19.669a1.028 1.028 0 11.001-2.053 1.028 1.028 0 01-.001 2.053zm0-1.635a.607.607 0 100 1.214.607.607 0 000-1.214z"/><path fill="#FFF" d="M20.369-23.382c-1.638.001-3.182.352-4.191.951a4.419 4.419 0 00-.205 1.322c.002.639.144 1.271.417 1.852 1.01.529 2.458.832 3.979.834 1.515-.002 2.956-.301 3.966-.826a4.43 4.43 0 00.42-1.859 4.39 4.39 0 00-.215-1.337c-1.012-.593-2.547-.937-4.171-.937z"/><path fill="#992500" d="M20.183-21.389a5.156 5.156 0 00-.74.084.942.942 0 101.848.027 4.277 4.277 0 00-1.108-.111z"/><path fill="#9A2400" d="M20.364-19.918a1.193 1.193 0 01-1.166-1.438.249.249 0 01.2-.194c.297-.053.543-.08.776-.088l.152-.003c.33 0 .673.041 1.02.121a.246.246 0 01.189.195 1.192 1.192 0 01-1.171 1.407zm-.693-1.171a.694.694 0 001.384.018 3.933 3.933 0 00-.729-.07l-.135.003c-.16.004-.328.02-.52.049z"/></g><g transform="translate(-110.77 98.252)"><animate attributeName="visibility" from="hidden" to="hidden" dur="600ms" begin="3s;a.end+3s" values="visible; hidden; hidden; hidden; visible; hidden; hidden; hidden" keyTimes="0; .087; 0.304; 0.391; 0.609; 0.696; 0.913; 1"/><circle fill="#FFF" cx="116.661" cy="-82.575" r="2.857"/><circle fill="#992500" cx="116.661" cy="-82.575" r=".817"/><path fill="#9A2400" d="M116.661-81.547a1.028 1.028 0 11.001-2.053 1.028 1.028 0 01-.001 2.053zm0-1.635a.607.607 0 100 1.214.607.607 0 000-1.214z"/><circle fill="#FFF" cx="123.122" cy="-82.989" r="4.39"/><circle fill="#992500" cx="123.122" cy="-82.989" r=".943"/><path fill="#9A2400" d="M123.122-81.796a1.194 1.194 0 01-1.193-1.193 1.194 1.194 0 012.386 0c0 .658-.535 1.193-1.193 1.193zm0-1.885a.693.693 0 100 1.386.693.693 0 000-1.386z"/></g><g fill="#9A2400"><circle cx="9.5" cy="23.008" r=".607"/><path d="M9.5 23.766a.759.759 0 010-1.515.76.76 0 01.758.757.76.76 0 01-.758.758zm0-1.214a.458.458 0 10-.001.915.458.458 0 00.001-.915z"/></g><path d="M17.315.028a7.478 7.478 0 00-7.477 7.478c.002.086.004.171.01.256.164.014.33.022.496.025A7.478 7.478 0 0017.82.31a5.475 5.475 0 00-.01-.256 7.348 7.348 0 00-.496-.026zm-14.006 1.8A5.742 5.742 0 019.052 7.57a6.368 6.368 0 01-.007.197 4.86 4.86 0 01-.381.02A5.744 5.744 0 012.92 2.044c0-.065.004-.132.008-.196a4.81 4.81 0 01.38-.02z" fill="#479F00"/></svg>