<svg xmlns="http://www.w3.org/2000/svg" width="26.972" height="27.688" viewBox="0 0.146 26.972 27.688"><g transform="translate(-716.186 -6.555)"><path fill="#479F00" d="M717.225 11.149a6.955 6.955 0 00-.455 2.441c0 4.311 3.991 7.807 8.915 7.807 4.925 0 8.915-3.495 8.917-7.807a6.935 6.935 0 00-.455-2.429c-1.203 3.199-4.615 5.362-8.462 5.364-3.85-.004-7.262-2.172-8.46-5.376z"/><path fill="none" stroke="#48A000" stroke-width="1.7" stroke-linecap="round" stroke-linejoin="round" d="M733.21 26.326c2.861-.49 2.395 3.069 5.963.662"/><path fill="#479F00" d="M742.696 23.259c-3.168-.157-4.754 1.278-4.912 4.447-.006.065 0 .13 0 .196.127.018.254.029.381.038 3.168.158 4.754-1.278 4.912-4.446.006-.065 0-.132 0-.196a6.145 6.145 0 00-.381-.04z"/><circle fill="#F98634" cx="725.686" cy="23.643" r="9.388"/><path d="M722.763 20.05a2.624 2.624 0 00-2.61 2.609c0 1.432 1.179 2.61 2.61 2.61s2.61-1.181 2.61-2.61-1.18-2.61-2.61-2.61zm5.942 0c-1.431 0-2.61 1.18-2.61 2.609s1.179 2.61 2.61 2.61c1.43 0 2.61-1.181 2.61-2.61s-1.18-2.61-2.61-2.61z" fill="#FFF"/><g fill="#BC310C"><g transform="translate(57.998 -.626)"><circle cx="664.764" cy="23.318" r=".972"/><path d="M664.764 24.604a1.288 1.288 0 01-1.287-1.285 1.287 1.287 0 012.574 0c0 .709-.577 1.285-1.287 1.285zm0-1.943a.658.658 0 10.002 1.312.658.658 0 00-.002-1.312z"/></g><g transform="translate(57.998 -.626)"><circle cx="670.707" cy="23.318" r=".972"/><path d="M670.707 24.604c-.71 0-1.288-.576-1.288-1.285a1.288 1.288 0 012.575 0c0 .709-.577 1.285-1.287 1.285zm0-1.943a.658.658 0 100 1.312.658.658 0 000-1.312z"/></g></g><path d="M724.444 21.54a.902.902 0 01-.55-.187l-2.577-1.991a.9.9 0 011.1-1.425l2.578 1.99a.9.9 0 01-.551 1.614zm2.579 0a.9.9 0 01-.552-1.613l2.576-1.99a.9.9 0 111.102 1.424l-2.576 1.99a.896.896 0 01-.55.19z" fill="#BC310C"/><path fill="#FFF" d="M719.789 25.471c1.666 1.159 3.378 1.71 5.944 1.71s4.278-.552 5.943-1.71c.357 1.237.373 2.071.164 2.576-.232.558-.691.851-1.243 1.116-1.015.489-2.94.881-4.864.881-1.925 0-3.851-.392-4.865-.881-.551-.267-1.008-.559-1.241-1.116-.21-.505-.195-1.339.162-2.576z"/></g></svg>