<svg xmlns="http://www.w3.org/2000/svg" width="19" height="27.834"><path fill="#FAAC2C" d="M18.889 17.12A9.387 9.387 0 019.5 26.507a9.39 9.39 0 119.389-9.388"/><path fill="#992500" d="M7.449 23.544c-.576 0-1.6-.409-2.4-1.188a4.257 4.257 0 01-1.287-2.6h-.03a.528.528 0 110-1.057h.53c.292 0 .528.236.528.529.002.933.337 1.73.995 2.37.652.633 1.44.905 1.667.887a.528.528 0 11.027 1.058h-.03zm.164-7.539a.528.528 0 01-.523-.454 1.123 1.123 0 00-1.105-.957c-.55 0-1.025.412-1.104.957a.53.53 0 01-1.047-.151 2.19 2.19 0 012.151-1.866A2.19 2.19 0 018.138 15.4a.53.53 0 01-.448.6c-.026.005-.052.005-.077.005zm6.846 0a.527.527 0 01-.521-.454 1.125 1.125 0 00-1.105-.957c-.55 0-1.025.412-1.104.957a.53.53 0 01-1.048-.151 2.188 2.188 0 012.15-1.866 2.19 2.19 0 012.153 1.866.53.53 0 01-.448.6c-.025.005-.052.005-.077.005z"/><path d="M17.316.009a7.476 7.476 0 00-7.478 7.477c.003.087.005.172.01.257.163.013.33.022.494.025A7.477 7.477 0 0017.821.29V.289c-.003-.085-.005-.17-.01-.255a7.209 7.209 0 00-.495-.025zm-14.008 1.8a5.744 5.744 0 015.744 5.744 5.21 5.21 0 01-.006.197 5.598 5.598 0 01-.381.019A5.744 5.744 0 012.92 2.025v-.001c0-.065.003-.131.007-.196.126-.01.253-.018.381-.02z" fill="#479F00"/></svg>