<svg xmlns="http://www.w3.org/2000/svg" width="20.313" height="27.834"><g transform="translate(428.241 -224.83)"><path fill="#479F00" d="M-408.326 229.728a7.191 7.191 0 00-9.865 2.475 4.57 4.57 0 00-.119.217c.129.093.262.182.397.266a7.19 7.19 0 009.865-2.475c.041-.071.08-.144.119-.216a7.855 7.855 0 00-.397-.267z"/><circle fill="#F8AD32" cx="-418.742" cy="241.949" r="9.389"/><circle fill="#992500" cx="-421.323" cy="240.518" r=".817"/><path fill="#9A2400" d="M-421.323 241.6a1.083 1.083 0 11.001-2.165 1.083 1.083 0 01-.001 2.165zm0-1.633a.554.554 0 10.001 1.107.554.554 0 00-.001-1.107z"/><circle fill="#992500" cx="-415.232" cy="241.643" r=".817"/><path fill="#9A2400" d="M-415.232 242.724a1.083 1.083 0 11.001-2.165 1.083 1.083 0 01-.001 2.165zm0-1.634a.554.554 0 10.001 1.107.554.554 0 00-.001-1.107z"/><path fill="#479F00" d="M-423.926 226.657a5.744 5.744 0 015.744 5.744 4.383 4.383 0 01-.008.197c-.127.01-.254.017-.382.019a5.743 5.743 0 01-5.743-5.743c.001-.065.004-.13.008-.196.126-.013.254-.019.381-.021z"/><ellipse transform="rotate(-163.029 -419.782 247.807)" fill="#992500" cx="-419.803" cy="247.809" rx=".954" ry="1.071"/><path fill="#9A2400" d="M-419.862 249.197c-.117 0-.232-.018-.346-.052-.675-.205-1.041-.974-.817-1.71.221-.719.971-1.164 1.634-.963.675.205 1.042.973.817 1.71-.183.599-.713 1.015-1.288 1.015zm.123-2.121c-.29 0-.563.227-.662.551-.119.393.054.793.384.895.327.1.698-.146.816-.527.119-.394-.053-.795-.383-.896a.528.528 0 00-.155-.023zm-4.327-7.463a.317.317 0 01-.315-.295c-.084-1.159.293-2.16 1.06-2.819.743-.638 1.785-.883 2.786-.654a.317.317 0 11-.141.619c-.809-.184-1.642.01-2.231.518-.61.524-.909 1.338-.84 2.29a.32.32 0 01-.294.341c-.008-.002-.016 0-.025 0zm10.185-.103a.317.317 0 01-.313-.268c-.113-.701-.813-1.111-1.786-1.047a.318.318 0 01-.043-.633c1.302-.087 2.287.547 2.455 1.578a.316.316 0 01-.262.364.222.222 0 01-.051.006z"/></g></svg>