<svg xmlns="http://www.w3.org/2000/svg" width="27.05" height="27.834" viewBox="-7.846 0 27.05 27.834"><g transform="translate(-66.822 -182.043)"><path fill="#FFC601" d="M65.826 190.936l-2.485-1.862-2.485 1.863 1.003-2.94-2.541-1.79 3.106.047.916-2.97.917 2.97 3.105-.047-2.54 1.79 1.004 2.939z"/><path fill="#FFF" d="M63.339 190.205a.45.45 0 01-.45-.45v-2.68a.45.45 0 11.899 0v2.68c.002.247-.2.45-.45.45z"/><path fill="#515151" d="M63.339 201.647a.448.448 0 01-.45-.45v-11.443a.45.45 0 11.899 0v11.442c.002.25-.2.45-.45.45z"/><path fill="#479F00" d="M61.214 194.717a5.743 5.743 0 015.742 5.744c-.001.065-.004.131-.007.197-.128.01-.255.018-.383.02a5.742 5.742 0 01-5.742-5.744c.001-.066.004-.131.007-.196a5.46 5.46 0 01.383-.021z"/><path fill="#FAAC2C" d="M85.658 199.163a9.387 9.387 0 01-9.389 9.387c-5.185 0-9.389-4.203-9.389-9.387a9.39 9.39 0 0118.778 0"/><path fill="#9a2400" d="M80.543 202.669a.529.529 0 01.356.913 6.836 6.836 0 01-4.83 1.887 6.834 6.834 0 01-4.77-2.034.53.53 0 01.752-.746 5.783 5.783 0 004.034 1.723 5.79 5.79 0 004.088-1.597.527.527 0 01.37-.146z"/><path fill="#992500" d="M74.463 196.825c0 1.01-.585 1.826-1.304 1.826-.721 0-1.305-.816-1.305-1.826 0-1.006.584-1.825 1.305-1.825.719.002 1.304.82 1.304 1.825m6.26 0c0 1.01-.583 1.826-1.304 1.826s-1.303-.816-1.303-1.826c0-1.006.582-1.825 1.303-1.825.72.002 1.304.82 1.304 1.825"/><path fill="#1260EE" d="M72.632 187.751c-.37 1.985-2.719 3.771-3.927 5.791 6.455-1.024 10.771-.613 15.042-.054-1.43-2.487-2.014-5.772-4.521-8.097-2.508-2.325-6.227-3.532-10.05-3.157 2.642 1.578 3.828 3.531 3.456 5.517z"/><circle fill="#FFF" cx="74.635" cy="184.621" r=".628"/><circle fill="#FFF" cx="78.437" cy="187.432" r=".628"/><circle fill="#FFF" cx="74.867" cy="188.16" r=".628"/><circle fill="#FFF" cx="77.248" cy="190.409" r=".628"/><circle fill="#FFF" cx="80.621" cy="191.203" r=".628"/><circle fill="#FFF" cx="73.08" cy="191.268" r=".628"/></g></svg>