<svg xmlns="http://www.w3.org/2000/svg" width="19.773" height="27.834" viewBox="-0.372 0 19.773 27.834"><g transform="translate(214.306 -225.58)"><path d="M-195.319 230.585a7.478 7.478 0 00-10.256 2.573 6.124 6.124 0 00-.124.225c.135.097.271.19.413.276a7.476 7.476 0 0010.256-2.572h.001c.042-.074.083-.148.123-.225a6.912 6.912 0 00-.413-.277zm-19.08 2.006a5.743 5.743 0 018.094.68c.042.05.082.102.122.153-.09.091-.184.177-.278.261a5.744 5.744 0 01-8.095-.678 5.88 5.88 0 01-.122-.154c.09-.09.184-.178.28-.262z" fill="#479F00"/><circle fill="#F8AD32" cx="-204.806" cy="242.699" r="9.389"/><g transform="translate(319.898 220.392)"><circle fill="#992500" cx="-527.22" cy="20.944" r=".817"/><path fill="#9A2400" d="M-527.22 22.026a1.082 1.082 0 110-2.164 1.082 1.082 0 010 2.164zm0-1.636a.554.554 0 10.001 1.107.554.554 0 00-.001-1.107z"/></g><g transform="translate(319.898 220.392)"><circle fill="#992500" cx="-522.188" cy="20.944" r=".817"/><path fill="#9A2400" d="M-522.188 22.026a1.082 1.082 0 110-2.164 1.082 1.082 0 010 2.164zm0-1.636a.554.554 0 10.001 1.107.554.554 0 00-.001-1.107z"/></g><path fill="#9A2400" d="M-208.611 248.062a.528.528 0 01-.32-.951 6.802 6.802 0 014.125-1.389c1.495 0 2.92.479 4.125 1.389a.53.53 0 01.104.74.53.53 0 01-.74.104 5.75 5.75 0 00-3.487-1.174c-1.262 0-2.47.405-3.487 1.174a.537.537 0 01-.32.107zm2.921-7.888a.393.393 0 01-.258-.096l-2.246-1.925a.397.397 0 11.518-.603l2.246 1.925a.399.399 0 01-.26.699zm1.77 0a.399.399 0 01-.259-.7l2.246-1.925a.396.396 0 11.517.603l-2.246 1.925a.4.4 0 01-.258.097z"/></g><g display="none"><g fill="#479F00"><path d="M18.801 3.85A7.644 7.644 0 008.83 8.021c-.031.081-.063.163-.091.246.151.08.305.15.46.217a7.643 7.643 0 009.972-4.172 4.45 4.45 0 00.091-.246 9.63 9.63 0 00-.46-.216z"/><path d="M2.256 5.9a5.872 5.872 0 017.999 2.225c.033.057.061.119.092.179a7.68 7.68 0 01-.33.208A5.868 5.868 0 012.02 6.287h-.001c-.031-.058-.061-.118-.091-.178.107-.073.216-.144.328-.209z"/></g><path fill="#FAAC2C" d="M18.889 17.12A9.387 9.387 0 019.5 26.507a9.39 9.39 0 119.389-9.388"/><path fill="#992500" d="M7.291 16.292c0 1.068-.619 1.933-1.38 1.933-.762 0-1.381-.865-1.381-1.933s.619-1.933 1.381-1.933c.762-.002 1.38.865 1.38 1.933m7.18 0c0 1.068-.618 1.933-1.381 1.933-.762 0-1.381-.865-1.381-1.933s.619-1.933 1.381-1.933c.761-.002 1.381.865 1.381 1.933M2.872 14.358a.552.552 0 01-.441-.883c1.801-2.402 4.207-2.431 4.308-2.431a.553.553 0 01.002 1.104c-.085 0-1.971.047-3.426 1.988a.552.552 0 01-.442.222m13.254 0a.548.548 0 01-.44-.222c-1.46-1.943-3.348-1.987-3.428-1.988a.554.554 0 01-.548-.555.551.551 0 01.551-.55c.102 0 2.505.028 4.307 2.43a.55.55 0 01-.441.885m-3.598 8.217c-.007-.024-.633-2.418-3.03-2.418s-3.023 2.395-3.028 2.418a.275.275 0 00.127.301.281.281 0 00.329-.034c.006-.003.56-.476 2.572-.476 1.983 0 2.55.458 2.572.476a.276.276 0 00.457-.267"/><path fill="#3DAEFF" fill-opacity=".64" d="M8.395 24.851a2.761 2.761 0 11-5.523 0c0-1.526 2.21-5.522 2.762-5.522s2.761 3.997 2.761 5.522"/></g></svg>