<svg xmlns="http://www.w3.org/2000/svg" width="41" height="27.834" viewBox="-3 0 41 27.834"><g transform="translate(-377.77 -421.393)"><animate id="a" attributeName="visibility" from="hidden" to="hidden" dur="690ms" begin="5s;a.end+5s" values="visible;hidden;hidden;hidden;hidden;hidden;hidden;hidden;hidden;hidden" keyTimes="0;0.043;0.087;0.116;0.145;0.189;0.232;0.942;0.971;1"/><path d="M415.26 426.497a5.29 5.29 0 00-6.481 3.742 5.062 5.062 0 00-.041.177c.11.04.222.075.335.107a5.29 5.29 0 006.481-3.741v-.001c.015-.058.026-.117.041-.176a4.84 4.84 0 00-.335-.108zm-10.203-1.413c2.33.302 3.796 2.417 3.273 4.726-.012.048-.023.096-.038.143a6.443 6.443 0 01-.282-.021c-2.331-.302-3.796-2.417-3.275-4.726v-.001c.012-.047.024-.094.038-.142.095.002.19.009.284.021z" fill="#404040"/><circle fill="#404040" cx="406.269" cy="438.511" r="9.389"/><path fill="#FAAC2C" d="M402.73 433.206h7.078a2.844 2.844 0 010 5.689h-7.078a2.844 2.844 0 110-5.689z"/><g transform="translate(420.426 481.987)"><circle fill="#992500" cx="-16.674" cy="-45.897" r=".818"/><path fill="#9A2400" d="M-16.674-44.814a1.083 1.083 0 11.003-2.165 1.083 1.083 0 01-.003 2.165zm0-1.636a.554.554 0 10.001 1.107.554.554 0 00-.001-1.107z"/></g><g transform="translate(420.426 481.987)"><circle fill="#992500" cx="-11.642" cy="-45.897" r=".818"/><path fill="#9A2400" d="M-11.642-44.814a1.083 1.083 0 11.001-2.165 1.083 1.083 0 01-.001 2.165zm0-1.636a.554.554 0 10.001 1.107.554.554 0 00-.001-1.107z"/></g></g><g transform="translate(-468.752 -227.743)" visibility="hidden"><animate attributeName="visibility" from="hidden" to="hidden" dur="690ms" begin="5s;a.end+5s" values="hidden;visible;hidden;hidden;hidden;hidden;hidden;hidden;hidden;visible" keyTimes="0;0.043;0.087;0.116;0.145;0.189;0.232;0.942;0.971;1"/><path fill="#404040" d="M498.446 235.383c1.854 1.563 2.168 4.846.543 6.763-.035.04-.068.078-.105.116a4.453 4.453 0 01-.232-.178c-1.852-1.563-2.168-4.846-.541-6.763.035-.039.068-.077.105-.115.077.057.155.116.23.177z"/><ellipse fill="#404040" cx="497.252" cy="246.966" rx="9.389" ry="7.284"/><path fill="#FAAC2C" d="M493.362 243.433h7.779a2.493 2.493 0 110 4.985h-7.779a2.492 2.492 0 110-4.985z"/><path fill="#404040" d="M502.858 235.914c1.307 2.143.5 5.554-1.637 7.048-.045.03-.09.061-.135.088a3.182 3.182 0 01-.17-.247c-1.309-2.144-.502-5.556 1.635-7.05.045-.03.09-.06.137-.088.058.081.117.164.17.249z"/><path fill="#992500" d="M494.282 245.404c-.435.172-.491.744 0 .936.493.192 1.092-.241 1.614-.468-.589-.333-1.179-.639-1.614-.468z"/><path fill="#9A2400" d="M494.547 246.52a.854.854 0 01-.313-.058c-.27-.104-.432-.32-.433-.579 0-.262.169-.498.432-.603a.88.88 0 01.324-.059c.423 0 .905.253 1.403.533a.134.134 0 01.066.122.128.128 0 01-.08.114 6.557 6.557 0 00-.361.175c-.341.175-.694.355-1.038.355zm.011-1.033a.628.628 0 00-.227.04c-.161.063-.266.203-.266.354 0 .147.097.27.264.334a.595.595 0 00.218.038c.28 0 .604-.164.919-.321.047-.024.093-.048.139-.07-.384-.209-.747-.375-1.047-.375z"/><path fill="#992500" d="M499.075 245.404c-.434.172-.492.744 0 .936.494.192 1.092-.241 1.615-.468-.59-.333-1.18-.639-1.615-.468z"/><path fill="#9A2400" d="M499.34 246.52a.859.859 0 01-.314-.058c-.27-.104-.432-.32-.432-.579 0-.262.168-.498.432-.603a.873.873 0 01.324-.059c.422 0 .904.253 1.402.533.045.025.07.072.066.122a.127.127 0 01-.078.114 6.557 6.557 0 00-.361.175c-.341.175-.695.355-1.039.355zm.01-1.033a.652.652 0 00-.229.04c-.16.063-.264.203-.264.354 0 .147.096.27.264.334a.6.6 0 00.219.038c.281 0 .605-.164.92-.321.045-.024.092-.048.139-.07-.385-.209-.748-.375-1.049-.375z"/></g><g transform="translate(-332.969 -218.184)" visibility="hidden"><animate attributeName="visibility" from="hidden" to="hidden" dur="690ms" begin="5s;a.end+5s" values="hidden;hidden;visible;hidden;hidden;hidden;hidden;hidden;visible;hidden" keyTimes="0;0.043;0.087;0.116;0.145;0.189;0.232;0.942;0.971;1"/><path fill="#404040" d="M362.987 226.026c.691 2.421-.809 5.377-3.374 5.897-.053.01-.106.019-.161.026a5.11 5.11 0 01-.098-.287c-.692-2.422.809-5.378 3.373-5.898.053-.01.107-.019.16-.026.038.095.071.191.1.288z"/><ellipse fill="#404040" cx="359.808" cy="237.407" rx="9.256" ry="7.284"/><path fill="#FAAC2C" d="M355.919 233.939h7.779a2.492 2.492 0 012.492 2.493 2.492 2.492 0 01-2.492 2.493h-7.779a2.494 2.494 0 110-4.986z"/><path fill="#404040" d="M369.198 227.664c-.596 2.587-3.967 4.474-6.625 3.709a5.203 5.203 0 01-.164-.053c.016-.106.033-.212.057-.316.596-2.587 3.967-4.474 6.625-3.709.055.017.109.034.164.054a4.245 4.245 0 01-.057.315z"/><g transform="matrix(1.02172 0 0 .51643 371.085 464.504)"><ellipse fill="#992500" cx="-13.552" cy="-441.631" rx=".834" ry=".422"/><path fill="#9A2400" d="M-13.552-440.302c-.624 0-1.076-.558-1.076-1.329 0-.77.453-1.329 1.076-1.329.624 0 1.076.562 1.076 1.329 0 .771-.453 1.329-1.076 1.329zm0-1.634c-.338 0-.538.238-.561.333.023.04.223.278.561.278.337 0 .539-.238.561-.335a.72.72 0 00-.561-.276z"/></g><g transform="matrix(1.02172 0 0 .51643 371.085 464.504)"><ellipse fill="#992500" cx="-8.522" cy="-441.631" rx=".835" ry=".422"/><path fill="#9A2400" d="M-8.522-440.302c-.623 0-1.076-.558-1.076-1.329 0-.77.453-1.329 1.076-1.329.625 0 1.076.562 1.076 1.329 0 .771-.451 1.329-1.076 1.329zm0-1.634c-.336 0-.537.238-.562.333.025.04.224.278.562.278.338 0 .539-.238.562-.335a.718.718 0 00-.562-.276z"/></g></g><g transform="translate(-556.605 -122.048)" visibility="hidden"><animate attributeName="visibility" from="hidden" to="hidden" dur="690ms" begin="5s;a.end+5s" values="hidden;hidden;hidden;visible;hidden;hidden;hidden;hidden;hidden;hidden" keyTimes="0;0.043;0.087;0.116;0.145;0.189;0.232;0.942;0.971;1"/><path fill="#404040" d="M586.661 134.184c-1.572 1.857-4.84 2.408-6.739.822a1.575 1.575 0 01-.114-.104c.057-.08.116-.156.177-.232 1.573-1.857 4.841-2.412 6.739-.822.039.031.078.066.115.102-.057.08-.115.158-.178.234z"/><ellipse fill="#404040" cx="579.381" cy="141.602" rx="9.39" ry="6.953"/><path fill="#FAAC2C" d="M575.49 137.737h7.78a2.493 2.493 0 010 4.986h-7.78a2.493 2.493 0 110-4.986z"/><path fill="#404040" d="M590.345 137.118c-2.047 1.514-5.865.924-7.504-1.16a4.569 4.569 0 01-.098-.133 3.7 3.7 0 01.236-.195c2.047-1.516 5.863-.926 7.504 1.158l.098.133a8.788 8.788 0 01-.236.197z"/><path fill="#992500" d="M576.479 139.709c-.435.172-.491.744 0 .936.493.192 1.092-.241 1.614-.468-.589-.333-1.179-.639-1.614-.468z"/><path fill="#9A2400" d="M576.744 140.825a.854.854 0 01-.313-.058c-.27-.104-.432-.32-.433-.579 0-.262.169-.498.432-.603a.88.88 0 01.324-.059c.423 0 .905.253 1.403.533a.134.134 0 01.066.122.128.128 0 01-.08.114 6.557 6.557 0 00-.361.175c-.342.175-.694.355-1.038.355zm.011-1.033a.628.628 0 00-.227.04c-.161.063-.266.203-.266.354 0 .147.097.27.264.334a.595.595 0 00.218.038c.28 0 .604-.164.919-.321.047-.024.093-.048.139-.07-.384-.209-.747-.375-1.047-.375z"/><path fill="#992500" d="M581.272 139.709c-.434.172-.492.744 0 .936.494.192 1.092-.241 1.615-.468-.59-.333-1.18-.639-1.615-.468z"/><path fill="#9A2400" d="M581.537 140.825a.859.859 0 01-.314-.058c-.27-.104-.432-.32-.432-.579 0-.262.168-.498.432-.603a.873.873 0 01.324-.059c.422 0 .904.253 1.402.533.045.025.07.072.066.122a.127.127 0 01-.078.114 6.557 6.557 0 00-.361.175c-.342.175-.695.355-1.039.355zm.01-1.033a.652.652 0 00-.229.04c-.16.063-.264.203-.264.354 0 .147.096.27.264.334a.6.6 0 00.219.038c.281 0 .605-.164.92-.321.045-.024.092-.048.139-.07-.385-.209-.748-.375-1.049-.375z"/></g><g transform="translate(-556.605 -122.048)" visibility="hidden"><animate attributeName="visibility" from="hidden" to="hidden" dur="690ms" begin="5s;a.end+5s" values="hidden;hidden;hidden;hidden;visible;hidden;hidden;hidden;hidden;hidden" keyTimes="0;0.043;0.087;0.116;0.145;0.189;0.232;0.942;0.971;1"/><path fill="#404040" d="M577.985 134.142c-1.572 1.857-4.84 2.408-6.739.822a1.575 1.575 0 01-.114-.104c.057-.08.116-.156.177-.232 1.573-1.857 4.841-2.412 6.739-.822.039.031.078.066.115.102-.056.08-.115.158-.178.234z"/><ellipse fill="#404040" cx="570.705" cy="141.56" rx="9.39" ry="6.953"/><path fill="#FAAC2C" d="M566.815 137.695h7.78a2.493 2.493 0 010 4.986h-7.78a2.492 2.492 0 110-4.986z"/><path fill="#404040" d="M581.669 137.076c-2.047 1.514-5.865.924-7.504-1.16a4.569 4.569 0 01-.098-.133 3.7 3.7 0 01.236-.195c2.047-1.516 5.863-.926 7.504 1.158l.098.133a8.788 8.788 0 01-.236.197z"/><path fill="#992500" d="M567.803 139.667c-.435.172-.491.744 0 .936.493.192 1.092-.241 1.614-.468-.589-.333-1.179-.639-1.614-.468z"/><path fill="#9A2400" d="M568.068 140.783a.854.854 0 01-.313-.058c-.27-.104-.432-.32-.433-.579 0-.262.169-.498.432-.603a.88.88 0 01.324-.059c.423 0 .905.253 1.403.533a.134.134 0 01.066.122.128.128 0 01-.08.114 6.557 6.557 0 00-.361.175c-.341.175-.694.355-1.038.355zm.011-1.033a.628.628 0 00-.227.04c-.161.063-.266.203-.266.354 0 .147.097.27.264.334a.595.595 0 00.218.038c.28 0 .604-.164.919-.321.047-.024.093-.048.139-.07-.384-.209-.747-.375-1.047-.375z"/><path fill="#992500" d="M572.596 139.667c-.434.172-.492.744 0 .936.494.192 1.092-.241 1.615-.468-.59-.333-1.18-.639-1.615-.468z"/><path fill="#9A2400" d="M572.861 140.783a.859.859 0 01-.314-.058c-.27-.104-.432-.32-.432-.579 0-.262.168-.498.432-.603a.873.873 0 01.324-.059c.422 0 .904.253 1.402.533.045.025.07.072.066.122a.127.127 0 01-.078.114 6.557 6.557 0 00-.361.175c-.341.175-.695.355-1.039.355zm.01-1.033a.652.652 0 00-.229.04c-.16.063-.264.203-.264.354 0 .147.096.27.264.334a.6.6 0 00.219.038c.281 0 .605-.164.92-.321.045-.024.092-.048.139-.07-.385-.209-.748-.375-1.049-.375z"/></g><g transform="translate(-289.62 -59.828)" visibility="hidden"><animate attributeName="visibility" from="hidden" to="hidden" dur="690ms" begin="5s;a.end+5s" values="hidden;hidden;hidden;hidden;hidden;visible;hidden;hidden;hidden;hidden" keyTimes="0;0.043;0.087;0.116;0.145;0.189;0.232;0.942;0.971;1"/><path fill="#404040" d="M304.021 72.805c-1.572 1.857-4.84 2.408-6.739.822a2.208 2.208 0 01-.113-.104c.057-.08.114-.156.177-.232 1.572-1.859 4.84-2.41 6.74-.824.039.035.074.068.111.104a4.47 4.47 0 01-.176.234z"/><ellipse fill="#404040" cx="296.975" cy="79.912" rx="9.389" ry="6.345"/><path fill="#FAAC2C" d="M293.086 76.543h7.777a2.495 2.495 0 012.494 2.494 2.492 2.492 0 01-2.494 2.492h-7.777a2.493 2.493 0 01-2.494-2.492 2.495 2.495 0 012.494-2.494z"/><path fill="#404040" d="M307.703 75.737c-2.047 1.516-5.863.926-7.504-1.158-.031-.045-.064-.088-.096-.133a3.13 3.13 0 01.236-.195c2.047-1.518 5.863-.926 7.504 1.158l.098.133c-.078.066-.156.132-.238.195z"/><g transform="matrix(1.02172 0 0 .51643 326.425 466.362)"><ellipse fill="#992500" cx="-31.34" cy="-750.002" rx=".836" ry=".422"/><path fill="#9A2400" d="M-31.34-748.673c-.624 0-1.076-.56-1.076-1.327 0-.771.452-1.331 1.076-1.331.624 0 1.077.56 1.077 1.331 0 .767-.453 1.327-1.077 1.327zm0-1.634c-.337 0-.538.238-.561.333a.713.713 0 00.561.276c.337 0 .539-.238.562-.333a.723.723 0 00-.562-.276z"/></g><g transform="matrix(1.02172 0 0 .51643 326.425 466.362)"><ellipse fill="#992500" cx="-26.307" cy="-750.002" rx=".833" ry=".422"/><path fill="#9A2400" d="M-26.307-748.673c-.625 0-1.076-.56-1.076-1.327 0-.771.453-1.331 1.076-1.331s1.074.56 1.074 1.331c0 .767-.451 1.327-1.074 1.327zm0-1.634c-.338 0-.539.238-.562.333a.718.718 0 00.562.276c.336 0 .537-.238.56-.333a.718.718 0 00-.56-.276z"/></g></g><g visibility="hidden"><animate attributeName="visibility" from="hidden" to="hidden" dur="690ms" begin="5s;a.end+5s" values="hidden;hidden;hidden;hidden;hidden;hidden;hidden;hidden;hidden;hidden" keyTimes="0;0.043;0.087;0.116;0.145;0.189;0.232;0.942;0.971;1"/></g><g transform="translate(-245.744 -63.134)" visibility="hidden"><animate attributeName="visibility" from="hidden" to="hidden" dur="690ms" begin="5s;a.end+5s" values="hidden;hidden;hidden;hidden;hidden;hidden;hidden;visible;hidden;hidden" keyTimes="0;0.043;0.087;0.116;0.145;0.189;0.232;0.942;0.971;1"/><ellipse fill="#404040" cx="274.244" cy="85.655" rx="6.346" ry="3.986"/><path fill="#FAAC2C" d="M271.987 84.006h4.514a1.25 1.25 0 010 2.5h-4.514a1.25 1.25 0 01-1.251-1.25c0-.689.561-1.25 1.251-1.25z"/><path fill="#404040" d="M278.733 81.617c-.84.924-2.355 1.199-3.371.41l-.061-.051c.031-.041.061-.078.094-.115.84-.926 2.357-1.199 3.373-.41a.969.969 0 01.061.051c-.03.039-.063.078-.096.115z"/><path fill="#404040" d="M279.36 82.731c-.896.93-2.684.787-3.602-.213-.02-.021-.037-.043-.055-.064.037-.035.078-.068.121-.102 1.064-.797 2.916-.92 3.604.213l.055.063c-.041.034-.08.07-.123.103z"/></g></svg>