<svg xmlns="http://www.w3.org/2000/svg" width="21.143" height="27.834" viewBox="-1.749 0 21.143 27.834"><path d="M14.07 3.753c-1.319.198-.481 2.273-2.72 1.38-.973-.387-1.26.382-1.542 1.053-.284.674-1.05 1.15-.748 1.934 1.936-.436 3.932.619 5.785.755 1.26.094 1.025-1.926 2.637-1.381 1.613.545 1.428-1.683 1.585-2.526-2.716.066-2.14-1.642-4.997-1.215zM2.27 6.005c1.154-1.295 3.087-.974 3.472.439.385 1.412 1.665-.3 2.378 1.399-.791 1.207-6.626 2.75-6.685 1.236-.06-1.514-1.698.576-2.886-1.931 1.714-1.128 2.569.15 3.721-1.143z" fill="#479F00"/><path fill="#FAAC2C" d="M18.889 17.12c0 5.185-4.203 9.386-9.389 9.386a9.388 9.388 0 110-18.775 9.388 9.388 0 019.389 9.389"/><path fill="#9A2400" d="M11.558 22.657a.532.532 0 01-.09-.007l-5.812-1.176a.45.45 0 01.177-.88l5.813 1.173a.45.45 0 01-.088.89zm-7.724-5.836a.529.529 0 01-.006-1.059l2.416-.027c-.609-.663-1.15-1.026-1.668-1.127a.53.53 0 11.205-1.04c.985.195 1.91.924 2.995 2.363a.53.53 0 01-.416.849l-3.52.041h-.006zm11.327 0h-.006l-3.52-.041a.53.53 0 01-.416-.849c1.086-1.44 2.01-2.169 2.994-2.362a.528.528 0 11.205 1.037c-.517.101-1.057.466-1.667 1.128l2.417.028a.53.53 0 01.523.535.531.531 0 01-.53.524z"/></svg>