<svg xmlns="http://www.w3.org/2000/svg" width="24.121" height="27.834"><g transform="translate(857.5 -443.656)"><circle fill="#FAAC2C" cx="-848" cy="460.773" r="9.389"/><g fill="#515151"><path d="M-839.375 459.373h-.007c-1.787-.024-6.204-.29-8.597-2.234a.53.53 0 01.667-.822c2.136 1.735 6.267 1.976 7.943 1.999a.528.528 0 01-.006 1.057z"/><path d="M-844.92 460.969c1.343.268 2.157-1.113 2.621-2.398-1.287.02-2.868-.54-3.826-.922-.195 1.227-.137 3.053 1.205 3.32z"/></g><path d="M-846.767 446.529a5.223 5.223 0 00-4.476 5.871l.03.176a6.81 6.81 0 00.346-.028 5.224 5.224 0 004.477-5.871c-.009-.059-.021-.118-.03-.176a5.791 5.791 0 00-.347.028zm-10.321 4.038a4.169 4.169 0 015.306 2.569c.016.045.028.091.042.136-.084.038-.17.072-.257.104a4.17 4.17 0 01-5.306-2.569h-.001l-.042-.136c.085-.038.171-.073.258-.104z" fill="#479F00"/><path fill="#479F00" d="M-848 451.385a9.39 9.39 0 00-9.061 6.973 35.044 35.044 0 006.877-.655c3.442-.676 6.638-1.82 9.103-3.262a9.384 9.384 0 00-6.919-3.056z"/><path fill="#9A2400" d="M-852.363 459.372c.384.447 2.772 1.476 3.678 1.615-.634.151-2.475.422-3.007.202-.534-.218-.76-1.234-.671-1.817z"/><path fill="#479F00" d="M-839.61 466.803c1.679.512 2.759-.933 2.939-2.094-1.411.053-2.708-1.048-3.656-1.439-.398 1.068-.964 3.019.717 3.533z"/><path fill="#515151" d="M-839.977 462.913c-.521-.009-.783.751-.382 1.05.917.682 2.131 1.18 3.823 1.332.702.063.813-.82.188-1.146-1.184-.621-2.484-1.217-3.629-1.236z"/><path fill="#515151" d="M-839.386 463.768c2.516-6.042 3.453-12.259 4.023-18.065 4.265 6.57.696 13.459-1.81 18.849l-2.213-.784z"/><path fill="#FFF" d="M-842.366 462.666c-2.186-.308-3.756 2.08-5.72 1.86s-4.491-.524-5.36.036c.719.259.44 2.328 1.641 2.72 1.25.332 2.695-.785 4.341-.826 1.646-.04 2.731.354 3.308.966 1.586-1.35 2.038-2.672 1.79-4.756z"/></g></svg>