<svg xmlns="http://www.w3.org/2000/svg" width="26" height="29.83"><g transform="translate(114.922 -175.236)"><path fill="#3DAEFF" fill-opacity=".614" d="M-114.387 200.903c.038 2.048 8.36.576 9.821 1.966 1.461 1.387 5.521 1.101 6.644-.422 1.119-1.521 8.512-.604 8.465-2.433-.049-1.826-5.271.176-5.988-2.479-4.127-1.654-12.357-1.858-14.169-.326 1.829 2.599-4.812 1.647-4.773 3.694z"/><g fill="#479F00"><path d="M-92.809 179.089a7.643 7.643 0 00-9.971 4.172l-.092.246c.151.078.305.149.46.216a7.641 7.641 0 009.972-4.171v-.001c.033-.081.063-.163.092-.245a7.165 7.165 0 00-.461-.217z"/><path d="M-109.353 181.139a5.871 5.871 0 017.999 2.226c.032.058.063.118.094.179-.109.072-.22.143-.331.209a5.868 5.868 0 01-7.998-2.226h-.001a3.754 3.754 0 01-.091-.179c.106-.074.216-.144.328-.209z"/></g><circle fill="#F8AD32" cx="-102.034" cy="192.353" r="9.389"/><g transform="matrix(1.02431 0 0 .4698 474.083 242.611)"><ellipse fill="#992500" cx="-564.958" cy="-109.383" rx=".836" ry=".386"/><path fill="#9A2400" d="M-564.958-107.75c-.702 0-1.192-.669-1.192-1.632 0-.958.49-1.631 1.192-1.631.7 0 1.189.67 1.189 1.631 0 .963-.489 1.632-1.189 1.632z"/></g><g transform="matrix(1.02431 0 0 .4698 474.083 242.611)"><ellipse fill="#992500" cx="-559.928" cy="-109.383" rx=".838" ry=".386"/><path fill="#9A2400" d="M-559.928-107.75c-.702 0-1.192-.669-1.192-1.632 0-.958.49-1.631 1.192-1.631.701 0 1.19.67 1.19 1.631 0 .963-.49 1.632-1.19 1.632z"/></g><path fill="#9A2400" d="M-106.465 198.518a.395.395 0 01-.316-.635c.675-.9 1.267-1.355 1.862-1.437.668-.093 1.178.307 1.631.655.403.313.785.607 1.256.607.469 0 .859-.305 1.275-.629.467-.365.989-.777 1.668-.676.594.09 1.168.561 1.811 1.482a.397.397 0 11-.653.455c-.494-.714-.926-1.103-1.277-1.154-.328-.053-.67.213-1.063.518-.479.375-1.021.799-1.763.799-.743 0-1.273-.412-1.742-.773-.377-.293-.703-.547-1.038-.5-.361.05-.811.429-1.335 1.127a.386.386 0 01-.316.161z"/><path d="M-103.767 192.897l-1.729-.002a.528.528 0 110-1.057l1.73.002a.528.528 0 110 1.057zm5.194 0l-1.73-.002a.529.529 0 010-1.057l1.73.002a.528.528 0 110 1.057z" fill="#C4F3FF"/><path d="M-106.86 189.747a.334.334 0 01-.124-.024.32.32 0 01-.168-.417c.757-1.771 1.748-2.227 2.447-2.298a.316.316 0 01.348.284.317.317 0 01-.283.348c-.53.054-1.292.43-1.928 1.916a.318.318 0 01-.292.191zm9.65 0a.317.317 0 01-.291-.191c-.637-1.486-1.398-1.862-1.928-1.916a.316.316 0 01-.283-.348.315.315 0 01.348-.284c.699.071 1.689.527 2.447 2.298a.322.322 0 01-.168.417.331.331 0 01-.125.024z" fill="#9A2400"/><path d="M-108.843 198.713a.394.394 0 01-.36-.231c-1.146-2.543-.422-4.146.112-4.871.799-1.088 2.169-1.656 3.575-1.488a.396.396 0 11-.093.787c-1.123-.135-2.212.314-2.84 1.172-.746 1.016-.758 2.463-.031 4.074a.394.394 0 01-.363.557zm13.616 0a.394.394 0 01-.361-.557c.729-1.611.717-3.059-.03-4.074-.626-.855-1.712-1.305-2.841-1.172a.396.396 0 11-.091-.787c1.408-.17 2.777.4 3.574 1.488.535.729 1.26 2.328.113 4.871a.402.402 0 01-.364.231z" fill="#C4F3FF"/></g></svg>