<svg xmlns="http://www.w3.org/2000/svg" width="19" height="27.834"><g transform="translate(37.011 -376.998)"><path d="M-19.696 377.025a7.478 7.478 0 00-7.477 7.478c0 .086.004.17.01.257.165.014.329.022.495.024a7.477 7.477 0 007.479-7.477v-.001a3.622 3.622 0 00-.01-.255 9.135 9.135 0 00-.497-.026zm-14.007 1.8a5.742 5.742 0 015.742 5.743 4.373 4.373 0 01-.007.197 5.368 5.368 0 01-.381.019 5.742 5.742 0 01-5.744-5.743c0-.065.003-.131.007-.196a5.52 5.52 0 01.383-.02z" fill="#479F00"/><circle fill="#F8AD32" cx="-27.511" cy="394.116" r="9.389"/><path d="M-29.315 392.943a.448.448 0 01-.443-.386 1.203 1.203 0 00-1.185-1.026 1.2 1.2 0 00-1.183 1.026.454.454 0 01-.51.381.451.451 0 01-.381-.51 2.11 2.11 0 012.074-1.798 2.107 2.107 0 012.073 1.798.45.45 0 01-.445.515zm6.831 0a.448.448 0 01-.443-.386 1.203 1.203 0 00-1.184-1.026c-.59 0-1.101.44-1.185 1.026a.451.451 0 01-.508.381.452.452 0 01-.383-.51 2.109 2.109 0 012.073-1.798 2.107 2.107 0 012.074 1.798.45.45 0 01-.444.515z" fill="#9A2400"/><path fill="#FFF" d="M-32.368 395.567c.248 3.538 2.346 6.234 4.854 6.238 2.511 0 4.612-2.697 4.86-6.238h-9.714z"/></g><g transform="translate(96.377 -404.373)"><circle fill="#F8AD32" cx="-86.877" cy="421.491" r="9.389"/><path d="M-79.088 405.474a7.479 7.479 0 00-7.477 7.478c0 .085.004.17.009.257.165.014.332.02.496.024a7.479 7.479 0 007.479-7.477v-.001c-.003-.085-.005-.17-.011-.255a6.805 6.805 0 00-.496-.026zm-14.007 1.798a5.743 5.743 0 015.742 5.744 4.277 4.277 0 01-.007.196 4.86 4.86 0 01-.381.02 5.744 5.744 0 01-5.744-5.743v-.001c0-.064.004-.13.007-.195.128-.011.255-.018.383-.021z" fill="#479F00"/><path d="M-88.665 421.39a.449.449 0 01-.444-.386 1.204 1.204 0 00-1.184-1.025c-.59 0-1.098.441-1.183 1.025a.45.45 0 11-.89-.129 2.108 2.108 0 012.073-1.797 2.106 2.106 0 012.073 1.797.451.451 0 01-.445.515zm6.831 0a.448.448 0 01-.443-.386 1.205 1.205 0 00-1.184-1.025c-.59 0-1.1.441-1.184 1.025a.45.45 0 11-.89-.129 2.106 2.106 0 012.07-1.797 2.107 2.107 0 012.075 1.797.451.451 0 01-.444.515z" fill="#9A2400"/><path fill="#FFF" d="M-91.734 424.28c.248 2.788 2.347 4.912 4.854 4.916 2.511 0 4.612-2.125 4.86-4.916h-9.714z"/></g><g transform="translate(49.877 -350.623)"><circle fill="#F8AD32" cx="-40.377" cy="367.74" r="9.389"/><path d="M-32.563 352.767a7.478 7.478 0 00-7.477 7.478c.001.086.004.17.01.257.165.014.33.02.495.023a7.475 7.475 0 007.48-7.477v-.001c-.003-.085-.005-.17-.012-.255a8.151 8.151 0 00-.496-.025zm-14.006 1.798a5.743 5.743 0 015.742 5.744 4.329 4.329 0 01-.007.196 5.368 5.368 0 01-.38.019 5.74 5.74 0 01-5.745-5.742c.001-.064.003-.131.007-.196.127-.012.255-.02.383-.021z" fill="#479F00"/><path d="M-42.181 368.682a.447.447 0 01-.443-.385 1.203 1.203 0 00-1.185-1.026 1.2 1.2 0 00-1.183 1.026.454.454 0 01-.51.381.451.451 0 01-.381-.51 2.108 2.108 0 012.074-1.797c1.035 0 1.925.771 2.073 1.797a.45.45 0 01-.445.514zm6.831 0a.448.448 0 01-.443-.385 1.203 1.203 0 00-1.184-1.026c-.59 0-1.101.44-1.185 1.026a.451.451 0 01-.508.381.452.452 0 01-.383-.51c.147-1.023 1.038-1.797 2.073-1.797s1.927.771 2.074 1.797a.45.45 0 01-.444.514z" fill="#9A2400"/><path fill="#FFF" d="M-45.234 371.506c.248 2.226 2.347 3.92 4.854 3.924 2.511 0 4.612-1.696 4.86-3.924h-9.714z"/></g></svg>