<svg xmlns="http://www.w3.org/2000/svg" width="19" height="27.834"><g transform="translate(51.288 -226.127)"><g fill="#479F00"><path d="M-32.985 230.285a7.304 7.304 0 00-9.53 3.987c-.029.077-.06.156-.087.235.144.074.291.142.44.207a7.304 7.304 0 009.53-3.986v-.001c.031-.078.06-.156.087-.235a7.408 7.408 0 00-.44-.207z"/><path d="M-48.797 232.243a5.612 5.612 0 017.645 2.127c.03.056.059.113.087.172a6.235 6.235 0 01-.315.199 5.607 5.607 0 01-7.642-2.127h-.001a5.29 5.29 0 01-.088-.17 5.99 5.99 0 01.314-.201z"/></g><circle fill="#F8AD32" cx="-41.803" cy="243.245" r="9.389"/><path fill="#F78C3F" d="M-32.54 241.736c-2.004 1.874-5.5 3.013-9.263 3.017-3.755-.002-7.247-1.133-9.257-3.002a9.48 9.48 0 00-.132 1.494 9.388 9.388 0 009.389 9.389 9.388 9.388 0 009.39-9.389 9.534 9.534 0 00-.127-1.509z"/><g transform="translate(602.693 224.637)"><circle fill="#992500" cx="-647.012" cy="19.202" r=".816"/><path fill="#9A2400" d="M-647.012 20.284a1.082 1.082 0 110-2.164 1.082 1.082 0 010 2.164zm0-1.635a.554.554 0 10.001 1.107.554.554 0 00-.001-1.107z"/></g><g transform="translate(602.693 224.637)"><circle fill="#992500" cx="-641.981" cy="19.202" r=".816"/><path fill="#9A2400" d="M-641.981 20.284a1.083 1.083 0 11.001-2.165 1.083 1.083 0 01-.001 2.165zm0-1.635a.554.554 0 10.001 1.107.554.554 0 00-.001-1.107z"/></g><path fill="#9A2500" d="M-41.803 250.729c-1.841 0-3.548-.697-4.807-1.967-.162-.162-.318-.205-.507-.139a.528.528 0 11-.353-.998c.575-.203 1.162-.061 1.609.392 1.059 1.065 2.499 1.653 4.056 1.653 1.563 0 3.002-.586 4.055-1.65.518-.525 1.059-.65 1.654-.376a.528.528 0 11-.441.962c-.127-.061-.211-.096-.461.156-1.251 1.27-2.958 1.967-4.805 1.967z"/><path d="M-37.034 242.542c-.01 0-.02 0-.027-.002a.318.318 0 01-.29-.345c.048-.528-.087-.973-.392-1.283-.336-.344-.863-.517-1.455-.48a.316.316 0 01-.338-.294.316.316 0 01.295-.34c.773-.051 1.482.192 1.95.669.439.448.636 1.064.57 1.784a.314.314 0 01-.313.29zm-9.537 0a.315.315 0 01-.315-.29c-.063-.72.134-1.336.57-1.783.468-.478 1.18-.721 1.953-.67a.32.32 0 01.296.34.32.32 0 01-.338.295c-.597-.041-1.12.135-1.456.48-.306.31-.44.755-.395 1.282a.317.317 0 01-.288.346h-.027z" fill="#9A2400"/><g fill="#F04012"><ellipse cx="-48.942" cy="243.961" rx="1.219" ry=".804"/><ellipse cx="-34.665" cy="243.961" rx="1.219" ry=".804"/></g></g></svg>