<svg xmlns="http://www.w3.org/2000/svg" width="22" height="27.834" viewBox="-1.5 0 22 27.834"><g transform="translate(300.261 -225.706)"><circle fill="#F8AD32" cx="-290.762" cy="242.824" r="9.389"/><g fill="#479F00"><path d="M-280.347 230.604a7.188 7.188 0 00-9.863 2.475 5.705 5.705 0 00-.12.217c.129.093.262.182.396.266a7.19 7.19 0 009.864-2.475c.041-.071.082-.144.119-.216a7.212 7.212 0 00-.396-.267z"/><path d="M-295.946 227.531a5.744 5.744 0 015.743 5.744c-.001.065-.004.131-.007.197-.128.01-.255.017-.382.019a5.743 5.743 0 01-5.743-5.743l.007-.196c.127-.012.254-.019.382-.021z"/></g><path d="M-285.912 239.428l-.023-.001a.318.318 0 01-.293-.34c.068-.952-.229-1.765-.84-2.29-.59-.507-1.424-.7-2.232-.518a.317.317 0 01-.139-.619c1-.228 2.043.018 2.785.655.766.659 1.143 1.66 1.06 2.817a.32.32 0 01-.318.296zm-10.184-.103a.317.317 0 01-.314-.369c.168-1.031 1.158-1.67 2.454-1.578a.317.317 0 01.296.338.326.326 0 01-.338.296c-.97-.063-1.672.346-1.786 1.047a.316.316 0 01-.312.266z" fill="#9A2400"/><path fill="#FFF" d="M-286.025 244.836c-2.883-.029-3.702.373-4.833.732-1.112.354-2.489.644-6.137.371a7.23 7.23 0 006.214 3.553 7.227 7.227 0 006.719-4.59 55.944 55.944 0 00-1.963-.066z"/><path fill="#595959" d="M-281.914 241.248h-17.696a.317.317 0 010-.633h17.694a.316.316 0 01.002.633z"/><path d="M-289.224 239.673h3.836c.479 0 .859.384.859.86v1.652c0 1.436-1.441 1.918-1.918 1.918h-1.719c-.479 0-1.918-.613-1.918-1.918v-1.652a.859.859 0 01.86-.86zm-6.913 0h3.837c.478 0 .859.384.859.86v1.652c0 1.436-1.441 1.918-1.918 1.918h-1.72c-.478 0-1.918-.613-1.918-1.918v-1.652a.86.86 0 01.86-.86z" fill="#595959"/><path d="M-288.562 240.433c-.404 0-.729.291-.729.652v.174c.174.033.352.051.531.051.824 0 1.566-.346 1.887-.877h-1.689zm-6.913 0c-.402 0-.728.291-.728.652v.174c.173.033.353.051.532.051.823 0 1.566-.346 1.885-.877h-1.689z" fill="#FFF"/></g></svg>