<svg xmlns="http://www.w3.org/2000/svg" width="19" height="27.834"><g fill="#479F00"><path d="M18.815 3.85a7.644 7.644 0 00-9.971 4.172 6.6 6.6 0 00-.092.247c.15.078.305.15.46.216a7.642 7.642 0 009.972-4.171v-.002a4.45 4.45 0 00.091-.245 8.064 8.064 0 00-.46-.217z"/><path d="M2.27 5.9a5.87 5.87 0 017.997 2.225c.034.057.063.119.094.179a7.68 7.68 0 01-.33.208 5.868 5.868 0 01-7.997-2.225h-.002c-.032-.058-.06-.118-.09-.178A4.71 4.71 0 012.27 5.9z"/></g><path fill="#FAAC2C" d="M18.889 17.12A9.387 9.387 0 019.5 26.507a9.39 9.39 0 119.389-9.388"/><path fill="#9A2500" d="M5.054 23.011a.529.529 0 01-.37-.907 6.836 6.836 0 014.801-1.962c1.8 0 3.505.695 4.8 1.96a.529.529 0 01-.74.758 5.783 5.783 0 00-4.06-1.66 5.79 5.79 0 00-4.063 1.66.527.527 0 01-.368.151z"/><path fill="#992500" d="M7.694 14.782c0 1.01-.585 1.827-1.304 1.827-.721 0-1.305-.817-1.305-1.827 0-1.006.584-1.824 1.305-1.824.719 0 1.304.818 1.304 1.825m6.259-.001c0 1.01-.584 1.827-1.304 1.827-.721 0-1.304-.817-1.304-1.827 0-1.006.582-1.824 1.304-1.824.72 0 1.303.818 1.303 1.825"/></svg>