<svg xmlns="http://www.w3.org/2000/svg" width="19" height="27.834"><g transform="translate(-189.508 -376.621)"><animate id="b" attributeName="visibility" from="hidden" to="hidden" dur="3s" begin="0s;a.end" values="visible; hidden" keyTimes="0; 1"/><path fill="#479F00" d="M208.364 381.52a7.192 7.192 0 00-9.864 2.476 5.643 5.643 0 00-.119.216c.129.093.261.182.396.266a7.194 7.194 0 009.867-2.474v-.001c.041-.071.08-.143.117-.215a5.406 5.406 0 00-.397-.268z"/><circle fill="#FAAC2C" cx="199.008" cy="393.739" r="9.389"/><g transform="translate(41.419 .207)" fill="#FFF"><circle cx="154.549" cy="391.529" r="2.76"/><circle cx="160.491" cy="391.529" r="2.76"/></g><path fill="#479F00" d="M192.765 378.448a5.743 5.743 0 015.743 5.743 6.48 6.48 0 01-.007.197 5.339 5.339 0 01-.381.019 5.742 5.742 0 01-5.744-5.742v-.001c.001-.065.004-.131.007-.196.127-.011.254-.018.382-.02z"/><g transform="translate(41.419 .207)"><circle fill="#992500" cx="153.949" cy="392.126" r=".817"/><path fill="#9A2400" d="M153.949 393.208a1.081 1.081 0 11-.001-2.163 1.081 1.081 0 01.001 2.163zm0-1.635a.554.554 0 100 1.107.554.554 0 000-1.107z"/></g><g transform="translate(41.419 .207)"><circle fill="#992500" cx="160.079" cy="392.126" r=".817"/><path fill="#9A2400" d="M160.079 393.208a1.081 1.081 0 11-.001-2.163 1.081 1.081 0 01.001 2.163zm0-1.635a.554.554 0 100 1.107.554.554 0 000-1.107z"/></g><circle fill="#992500" cx="201.851" cy="399.597" r=".607"/><path fill="#9A2400" d="M201.851 400.399a.806.806 0 11.002-1.612.806.806 0 01-.002 1.612zm0-1.213a.412.412 0 00-.412.41.41.41 0 10.412-.41z"/></g><g transform="translate(-233.693 -323.776)" visibility="hidden"><animate attributeName="visibility" from="hidden" to="hidden" dur="500ms" begin="b.end;anim_eyes_right.end" values="visible; hidden" keyTimes="0; 1"/><path fill="#479F00" d="M252.549 328.674a7.191 7.191 0 00-9.865 2.476 5.643 5.643 0 00-.119.216c.129.093.261.182.396.266a7.193 7.193 0 009.867-2.475 9.01 9.01 0 00.119-.215 6.749 6.749 0 00-.398-.268z"/><circle fill="#FAAC2C" cx="243.193" cy="340.894" r="9.389"/><g transform="translate(85.039 .113)" fill="#FFF"><circle cx="155.114" cy="338.778" r="2.76"/><circle cx="161.054" cy="338.778" r="2.76"/></g><path fill="#479F00" d="M236.948 325.603a5.743 5.743 0 015.743 5.743 4.277 4.277 0 01-.007.196 5.366 5.366 0 01-.382.02 5.743 5.743 0 01-5.743-5.743v-.001c.001-.064.004-.13.007-.195a5.46 5.46 0 01.382-.02z"/><circle fill="#992500" cx="240.16" cy="339.488" r=".817"/><path fill="#9A2400" d="M240.16 340.568a1.081 1.081 0 11-.001-2.163 1.081 1.081 0 01.001 2.163zm0-1.632a.554.554 0 10.001 1.107.554.554 0 00-.001-1.107z"/><circle fill="#992500" cx="246.095" cy="339.49" r=".817"/><path fill="#9A2400" d="M246.095 340.57a1.081 1.081 0 11-.001-2.163 1.081 1.081 0 01.001 2.163zm0-1.632a.554.554 0 10.001 1.107.554.554 0 00-.001-1.107z"/><circle fill="#992500" cx="246.034" cy="346.751" r=".606"/><path fill="#9A2400" d="M246.034 347.557c-.442 0-.805-.361-.805-.806s.36-.804.805-.804a.805.805 0 110 1.61zm0-1.216a.41.41 0 100 .819c.228 0 .412-.184.412-.409s-.184-.41-.412-.41z"/></g><g transform="translate(-275.508 -269.966)" visibility="hidden"><animate id="a" attributeName="visibility" from="hidden" to="hidden" dur="3s" begin="b.end+500ms" values="visible; hidden" keyTimes="0; 1"/><path fill="#479F00" d="M294.365 274.864a7.193 7.193 0 00-9.866 2.476c-.041.07-.081.143-.119.217.129.092.262.181.397.266a7.19 7.19 0 009.865-2.475v-.002c.041-.07.08-.143.119-.215a6.232 6.232 0 00-.396-.267z"/><circle fill="#FAAC2C" cx="285.008" cy="287.083" r="9.39"/><g transform="translate(127.288 -.948)" fill="#FFF"><circle cx="154.68" cy="286.028" r="2.759"/><circle cx="160.62" cy="286.028" r="2.759"/></g><path fill="#479F00" d="M278.763 271.791a5.743 5.743 0 015.743 5.743 4.227 4.227 0 01-.007.196 4.863 4.863 0 01-.381.021 5.744 5.744 0 01-5.744-5.743c.001-.066.004-.132.007-.195.128-.012.255-.019.382-.022z"/><circle fill="#992500" cx="282.426" cy="285.677" r=".817"/><path fill="#9A2400" d="M282.426 286.76a1.083 1.083 0 111.083-1.082c0 .595-.487 1.082-1.083 1.082zm0-1.636a.554.554 0 10.001 1.107.554.554 0 00-.001-1.107z"/><circle fill="#992500" cx="288.555" cy="285.677" r=".817"/><path fill="#9A2400" d="M288.555 286.76a1.082 1.082 0 110-2.164 1.082 1.082 0 010 2.164zm0-1.636a.554.554 0 10.001 1.107.554.554 0 00-.001-1.107z"/><circle fill="#992500" cx="287.851" cy="292.94" r=".607"/><path fill="#9A2400" d="M287.851 293.744a.806.806 0 11.002-1.608.806.806 0 01-.002 1.608zm0-1.215a.41.41 0 100 .82.41.41 0 000-.82z"/></g></svg>