<svg xmlns="http://www.w3.org/2000/svg" width="21" height="31.83" viewBox="-1 -1.998 21 31.83"><g transform="translate(-84.45 -225.893)"><path d="M103.572 230.097c-5.264 0-9.53 2.002-9.53 4.472.002.052.006.103.013.153.21.008.42.013.632.015 5.263 0 9.53-2.002 9.53-4.471-.002-.052-.006-.103-.01-.154a24.838 24.838 0 00-.635-.015zm-17.852 1.077c4.043 0 7.32 1.538 7.32 3.435a3.634 3.634 0 01-.01.118c-.16.006-.324.01-.487.012-4.045 0-7.32-1.539-7.32-3.436 0-.04.005-.079.008-.118.164-.006.325-.01.489-.011z" fill="#479F00"/><circle fill="#F8AD32" cx="93.948" cy="243.012" r="9.388"/><g transform="translate(41.807)" fill="#FFF"><circle cx="48.17" cy="241.059" r="3.898"/><circle cx="55.966" cy="241.059" r="3.898"/></g><g transform="translate(41.807)"><circle fill="#992500" cx="55.966" cy="241.06" r="1.001"/><path fill="#9A2400" d="M55.966 242.378a1.319 1.319 0 11.001-2.637 1.319 1.319 0 01-.001 2.637zm0-2.002a.687.687 0 00-.686.684.687.687 0 001.371 0 .685.685 0 00-.685-.684z"/></g><g transform="translate(41.807)"><circle fill="#992500" cx="48.17" cy="241.06" r="1.001"/><path fill="#9A2400" d="M48.17 242.378a1.32 1.32 0 010-2.637 1.32 1.32 0 010 2.637zm0-2.002a.686.686 0 00-.686.684.686.686 0 001.37 0 .685.685 0 00-.684-.684z"/></g><path fill="#F8AD32" d="M98.194 250.982c-.979 1.399-1.12 2.838-1.755 3.474a3.5 3.5 0 01-2.481 1.026 3.502 3.502 0 01-2.479-1.026c-.635-.635-.979-1.988-1.82-3.342-.842-1.352 2.469-2.619 4.301-2.646 1.997.169 5.212 1.114 4.234 2.514z"/><g fill="#9A2400"><path d="M94.95 252.852a1.001 1.001 0 11-2.003 0v-3.703a1.002 1.002 0 012.004 0l-.001 3.703z"/><path d="M93.948 254.178a1.328 1.328 0 01-1.326-1.326v-3.703c0-.73.595-1.326 1.326-1.326.73 0 1.327.596 1.327 1.326l-.001 3.703c0 .73-.595 1.326-1.326 1.326zm0-5.707a.68.68 0 00-.678.678v3.703a.679.679 0 001.355 0l.001-3.703a.678.678 0 00-.678-.678z"/></g></g></svg>