<svg xmlns="http://www.w3.org/2000/svg" width="33.125" height="28" viewBox="-10.125 -0.083 33.125 28"><g fill="#555"><path d="M-2.942 19.503L-9.676.14l7.669 19.27-.935.093z"/><path d="M-2.942 19.636a.132.132 0 01-.125-.09L-9.802.183c-.022-.068.012-.142.079-.167s.143.008.168.075l7.67 19.27a.122.122 0 01-.01.117.129.129 0 01-.1.063l-.937.093c-.001.002-.006.002-.01.002zM-7.58 5.764l4.729 13.597.658-.064L-7.58 5.764z"/></g><path fill="#479F00" d="M-3.222 20.999c.46 2.084 2.004 2.777 4.209 2.619.33-1.342.368-2.682-1.028-4.021l-3.181 1.402z"/><g fill="#555"><path d="M-1.352 18.794A3.047 3.047 0 00-4.4 21.84c0 .448.102.893.294 1.297l5.354-2.88a3.049 3.049 0 00-2.601-1.464z"/><path d="M-4.105 23.31a.16.16 0 01-.054-.008.178.178 0 01-.103-.091 3.222 3.222 0 01-.311-1.37 3.222 3.222 0 013.219-3.22 3.247 3.247 0 012.748 1.549c.023.04.03.089.019.136a.166.166 0 01-.085.105l-5.354 2.878a.142.142 0 01-.08.02zm2.753-4.344a2.878 2.878 0 00-2.874 2.875 2.9 2.9 0 00.204 1.057L1 20.197a2.893 2.893 0 00-2.352-1.231z"/></g><path fill="#555" d="M6.986 2.686c-.73.682-1.93 1.498-2.164 2.117-.218.578.025 2.168.006 3.232-2.672-.14-4.4-.34-5.812-.335-.703.002-1.351.057-2.041.196a.661.661 0 00-.428 1.035c.718 1.68 7.108 1.643 12.539 1.624.343 0 .718-.001 1.067 0 5.433.019 11.823.057 12.54-1.624a.661.661 0 00-.427-1.035 10.146 10.146 0 00-2.042-.196c-1.41-.004-3.14.196-5.812.335-.02-1.064.224-2.654.007-3.232-.234-.62-1.437-1.435-2.165-2.117-.73-.682-1.954-1.531-2.636-1.531-.68 0-1.902.849-2.632 1.53z"/><path fill="#FFF" d="M7.132 3.757h4.928v1.058H7.132zm0 2.91h4.928v1.058H7.132z"/><path fill="#FFF" d="M7.624 7.516l-.48-.76 4.378-2.76.48.76z"/><path fill="#F8AD32" d="M3.597 9.82a9.388 9.388 0 005.902 16.686c5.187 0 9.39-4.2 9.39-9.387v-.001a9.393 9.393 0 00-3.491-7.297H3.597z"/><path fill="#FFF" d="M12.46 23.617H6.538a1.588 1.588 0 010-3.176h5.924a1.588 1.588 0 010 3.176z"/><g transform="translate(-114.541 -225.627)" fill="#555"><ellipse cx="120.089" cy="240.394" rx="4.209" ry="2.502"/><ellipse cx="127.993" cy="240.394" rx="4.209" ry="2.502"/><path d="M115.774 238.299a9.413 9.413 0 00-1.093 3.791h18.714a9.399 9.399 0 00-1.094-3.791h-16.527z"/></g><g transform="translate(-125.041 -171.127)"><circle fill="#FFF" cx="138.161" cy="185.823" r=".817"/><path fill="#F8AB32" d="M138.161 186.906a1.082 1.082 0 110-2.164 1.082 1.082 0 010 2.164zm0-1.635a.554.554 0 00-.554.553.554.554 0 001.108 0 .554.554 0 00-.554-.553z"/></g><g transform="translate(-125.041 -171.127)"><circle fill="#FFF" cx="131.013" cy="185.823" r=".817"/><path fill="#F8AB32" d="M131.013 186.906a1.083 1.083 0 11.001-2.165 1.083 1.083 0 01-.001 2.165zm0-1.635a.554.554 0 00-.554.553.554.554 0 001.107 0 .554.554 0 00-.553-.553z"/></g></svg>